<svg xmlns="http://www.w3.org/2000/svg" style="enable-background:new 0 0 135.828 135.788" viewBox="0 0 135.828 135.788"><path style="fill:#5a9908" d="M0 67.872c0 34.604 27.145 64.467 61.629 67.638 34.499 3.172 66.779-21.087 73.093-55.204 6.309-34.109-14.982-68.469-48.41-77.844-33.44-9.378-69.575 8.831-81.906 41.291A68.068 68.068 0 0 0 .002 67.872"/><radialGradient id="a" gradientUnits="userSpaceOnUse" cy="67.87" cx="67.928" r="63.124"><stop style="stop-color:#d1f593" offset="0"/><stop style="stop-color:#81ce09" offset="1"/></radialGradient><path style="fill:url(#a)" d="M4.805 67.872c0 34.4 28.723 63.122 63.124 63.122 34.4 0 63.123-28.722 63.123-63.122 0-34.401-28.721-63.125-63.123-63.125S4.807 33.475 4.807 67.876"/><path style="fill:#67ba06" d="M10.892 43.334c-5.097 29.729 12.654 59.589 41.207 69.317 30.282 10.318 64.357-4.932 77.021-34.264-6.086 35.498-42.582 58.835-77.36 49.449-35.909-9.69-55.665-50.268-40.868-84.506"/><path style="fill:#b2ed21" d="M28.502 39.848c8.729 1.808 18.781-10.559 26.351-13.707 14.141-5.877 31.806-3.147 44.617 4.857 13.551 8.467 23.19 24.729 24.673 40.692.004.047.004.055 0 .024-1.001-9.667-.325-18.753-4.006-28.098-6.1-15.49-19.292-27.619-35.196-32.492-16.446-5.038-34.429-1.832-48.596 7.769-4.368 2.965-21.207 18.188-7.836 20.955"/><path style="fill:#739b07" d="M98.494 44.133C86.456 54.562 74.415 64.986 62.382 75.419c-5.911-6.822-11.819-13.644-17.729-20.466-2.35-2.712-4.534-5.902-8.198-6.885-5.947-1.596-13.654 3.867-14.911 9.807-1.695 8.014 9.643 17.108 14.241 22.415 5.265 6.077 10.342 12.396 15.586 18.447 7.188 8.292 13.557 5.293 20.431-.663L94.971 78l18.216-15.782c10.46-9.067-4.31-27.087-14.696-18.085M62.874 77.36l18.958-16.424c5.94-5.146 12.429-13.128 19.595-16.615 6.15-2.99 14.369 4.087 13.905 10.545-.28 3.906-3.333 6.012-6.002 8.322L84.849 84.399a45218.005 45218.005 0 0 0-18.638 16.141c-7.872 6.82-13.896-3.893-18.428-9.124L26.657 67.034c-2.938-3.391-5.104-7.569-2.024-11.833 3.501-4.843 10.741-8.208 15.394-2.838 2.859 3.301 20.803 26.339 22.84 24.997"/><path style="fill:#fff" d="M114.06 48.424c-9.625-12.197-19.166.01-27.288 7.047-8.16 7.071-16.321 14.142-24.483 21.212L47.158 59.216c-6.288-7.258-11.859-14.72-21.423-6.43-8.281 7.179.231 14.806 5.142 20.477 6.161 7.11 12.321 14.222 18.484 21.332 4.771 5.508 10.061 13.02 17.857 6.264l17.116-14.828 21.976-19.039c5.21-4.513 14.45-10.836 7.75-18.569"/></svg>