<svg xmlns="http://www.w3.org/2000/svg" viewBox="0 0 194.22 184.73"><path style="fill:#fc0" d="m369.21 535.67-27.378-13.792-26.883 14.735 4.657-30.3-22.321-21.014 30.256-4.935 13.088-27.722 14.043 27.251 30.409 3.881-21.577 21.776z" transform="rotate(1.005 57406.166 -36848.976) scale(2.21184)"/><path d="m380.03 451.38-30.72 41.819 97.411-31.899z" style="fill:#ffe680" transform="translate(-252.715 -390.964)"/><path d="M349.81 492.31v51.942l-60.63 31.117zM349.81 492.31l59.613 81.476-11.189-65.984z" style="fill:#fd5" transform="translate(-252.715 -390.964)"/><path d="m253.1 461.37 96.715 30.942-29.882-40.842z" style="fill:#ffe680" transform="translate(-252.715 -390.964)"/><path d="M349.81 492.31V391.09l29.83 60.357z" style="fill:#fd5" transform="translate(-252.715 -390.964)"/><path d="m289.8 574.53 11.261-66.541 48.757-15.679z" style="fill:#ffd42a" transform="translate(-252.715 -390.964)"/></svg>