<svg xmlns="http://www.w3.org/2000/svg" width="16" height="16" id="rotate">
  <path d="M5.824 2a.5.5 0 0 0-.05.002.5.5 0 0 0-.213.936l.546.316A4.486 4.486 0 0 0 3.28 6.11l-.341-.591a.5.5 0 0 0-.458-.256.5.5 0 0 0-.41.756l1 1.73a.5.5 0 0 0 .46.25.5.5 0 0 0 .017 0 .5.5 0 0 0 .342-.145l1.597-.921a.5.5 0 1 0-.5-.866l-.797.461a3.463 3.463 0 0 1 2.409-2.386l-.489.843a.5.5 0 1 0 .868.5l1-1.732a.5.5 0 0 0 .052-.361.5.5 0 0 0-.006-.026.5.5 0 0 0-.025-.07.5.5 0 0 0-.012-.024.5.5 0 0 0-.011-.021.5.5 0 0 0-.23-.209l-1.684-.97A.5.5 0 0 0 5.824 2zM9.5 2a.5.5 0 0 0-.5.5v8a.5.5 0 0 0 .5.5h5a.5.5 0 0 0 .5-.5v-8a.5.5 0 0 0-.5-.5h-5zm.5 1h4v7h-4V3zM2.5 9a.5.5 0 0 0-.5.5v5a.5.5 0 0 0 .5.5h8a.5.5 0 0 0 .5-.5V12h-1v2H3v-4h5V9H2.5z" color="#000" font-family="sans-serif" font-weight="400" overflow="visible" style="line-height:normal;text-indent:0;text-align:start;text-decoration-line:none;text-decoration-style:solid;text-decoration-color:#000;text-transform:none;block-progression:tb;white-space:normal;isolation:auto;mix-blend-mode:normal;solid-color:#000;solid-opacity:1"></path>
</svg>